<!DOCTYPE svg PUBLIC "-//W3C//DTD SVG 20010904//EN" "http://www.w3.org/TR/2001/REC-SVG-20010904/DTD/svg10.dtd">
<svg version="1.0" xmlns="http://www.w3.org/2000/svg" width="699px" height="527px" viewBox="0 0 6990 5270" preserveAspectRatio="xMidYMid meet">
<g id="layer101" fill="#15a5a3" stroke="none">
 <path d="M4508 5104 c-9 -20 -8 -40 7 -102 29 -114 105 -257 220 -413 94 -126 117 -171 113 -222 -3 -42 -3 -42 -44 -43 -83 -2 -112 -13 -146 -54 -17 -22 -34 -40 -38 -40 -4 0 -28 36 -54 80 -69 120 -103 152 -183 179 -60 20 -72 21 -104 9 -32 -12 -115 -93 -155 -154 -20 -30 -2 -215 26 -258 11 -17 32 -56 46 -86 157 -336 167 -355 185 -355 8 0 22 17 32 37 16 32 17 43 7 74 -7 21 -10 58 -7 85 5 38 0 62 -19 111 -14 35 -30 67 -35 73 -5 5 -9 17 -9 27 0 11 -9 36 -19 56 -25 49 -61 160 -61 187 0 14 10 26 25 33 23 11 32 8 79 -22 29 -19 63 -48 75 -65 18 -25 103 -214 160 -358 18 -43 38 -48 82 -18 21 14 45 25 53 25 7 0 19 14 26 30 13 31 12 49 -11 197 -7 45 -10 85 -6 89 3 3 35 1 70 -6 86 -16 133 -3 182 51 20 23 43 56 51 75 25 60 -19 147 -154 302 -98 113 -181 232 -243 348 -78 146 -125 186 -151 128z"/>
 <path d="M5345 4482 c-14 -21 -32 -61 -40 -89 -8 -28 -22 -64 -30 -80 -20 -38 -19 -45 10 -100 13 -27 32 -68 40 -93 9 -25 38 -70 65 -100 27 -30 50 -60 50 -66 0 -6 16 -18 36 -27 35 -17 36 -17 97 15 60 32 62 34 61 71 -1 26 -14 57 -46 105 -30 44 -47 84 -52 114 -4 26 -34 102 -66 168 -68 136 -82 146 -125 82z"/>
 <path d="M1352 4489 c-51 -26 -159 -129 -197 -189 -14 -23 -36 -79 -47 -123 -18 -72 -19 -87 -8 -132 13 -48 35 -97 75 -160 25 -40 197 -215 211 -215 6 0 23 -11 38 -25 31 -29 34 -29 72 -11 16 8 59 17 96 21 55 5 77 3 126 -15 36 -13 59 -27 59 -36 0 -11 -7 -14 -24 -9 -12 3 -23 3 -23 0 0 -21 166 -63 182 -47 14 14 1 32 -23 32 -11 0 -31 12 -44 26 -14 15 -53 35 -95 48 l-70 23 47 32 c125 86 139 187 39 286 -98 97 -274 130 -432 80 -18 -6 -25 3 -52 63 -18 38 -32 80 -32 94 0 27 36 87 60 98 69 34 136 52 173 48 56 -7 179 -59 255 -108 57 -37 82 -48 82 -35 0 24 -36 80 -79 123 -83 83 -225 152 -316 152 -16 0 -49 -10 -73 -21z m51 -470 c95 -49 167 -121 181 -182 9 -37 -15 -45 -61 -21 -88 46 -214 195 -182 215 18 11 13 12 62 -12z"/>
 <path d="M3430 4497 c-55 -18 -202 -165 -233 -235 -39 -87 -51 -175 -31 -236 24 -71 88 -177 131 -217 21 -19 54 -53 74 -75 19 -22 56 -52 82 -67 26 -15 47 -32 47 -37 0 -14 24 -12 56 5 16 8 43 15 60 15 82 0 198 61 249 130 29 39 33 99 11 151 -57 134 -290 204 -482 144 -18 -6 -25 3 -52 64 -18 39 -32 82 -32 95 0 26 37 85 60 96 50 25 130 50 156 50 58 0 200 -59 291 -121 53 -37 65 -37 57 -1 -20 82 -176 203 -309 238 -58 16 -87 16 -135 1z m65 -496 c66 -38 131 -103 145 -146 25 -77 -17 -74 -124 9 -38 29 -126 139 -126 157 0 19 57 8 105 -20z"/>
 <path d="M6396 4471 c-15 -17 -17 -33 -13 -103 3 -46 10 -102 15 -126 10 -46 9 -46 -48 4 -44 39 -241 154 -263 154 -12 0 -35 7 -51 15 -39 20 -80 11 -95 -21 -25 -55 -18 -65 119 -169 133 -100 276 -195 294 -195 6 0 -12 -24 -40 -52 -84 -88 -119 -140 -143 -217 -16 -48 -13 -80 9 -128 41 -91 162 -129 308 -98 40 8 75 15 77 15 2 0 13 -20 24 -44 20 -45 49 -70 68 -58 6 4 13 61 17 137 3 72 9 150 12 175 3 25 -1 83 -10 130 -8 47 -20 112 -26 145 -33 189 -102 363 -167 423 -42 37 -63 40 -87 13z m134 -706 c16 -69 30 -134 30 -144 0 -26 -19 -31 -124 -31 -112 0 -131 10 -129 68 2 56 32 108 110 198 78 89 67 98 113 -91z"/>
 <path d="M196 4467 c3 -7 34 -34 69 -62 35 -27 64 -53 64 -57 1 -5 5 -8 10 -8 13 0 111 -67 136 -93 12 -12 70 -60 128 -106 59 -46 107 -89 107 -96 0 -28 -129 -33 -255 -10 -44 8 -85 14 -91 15 -16 0 -87 97 -103 140 -7 19 -21 70 -32 112 -27 112 -49 154 -79 150 -13 -1 -29 -7 -37 -13 -16 -14 -17 -90 -3 -174 6 -33 18 -109 26 -170 21 -148 29 -203 49 -314 16 -87 16 -97 1 -122 -35 -60 -14 -119 67 -188 122 -102 251 -147 401 -139 81 4 102 9 147 35 72 41 92 69 97 144 4 50 1 66 -16 88 l-20 28 46 -9 c26 -5 60 -11 76 -14 16 -2 41 -13 55 -23 14 -10 38 -21 52 -24 15 -4 37 -15 50 -26 l24 -20 -80 1 c-106 0 -107 0 -100 -12 3 -5 1 -10 -6 -10 -9 0 -10 -3 -3 -10 11 -11 83 -25 174 -35 103 -10 155 -16 185 -21 71 -10 104 -14 168 -18 38 -3 76 -11 85 -18 13 -11 56 -14 197 -12 222 2 215 2 215 14 0 6 -17 10 -37 11 -21 0 -47 4 -58 9 -15 6 -6 9 34 9 46 1 52 3 41 16 -7 8 -19 15 -26 15 -8 0 -14 4 -14 9 0 5 -12 12 -26 15 -20 5 -312 35 -346 36 -13 0 -9 -28 5 -33 8 -3 9 -8 2 -15 -10 -11 -46 -8 -235 18 -79 12 -130 27 -130 40 0 5 -14 13 -31 19 -17 6 -28 15 -25 20 4 5 -15 12 -41 16 -67 9 -93 21 -93 45 0 11 -1 20 -2 20 -2 1 -21 3 -43 6 -22 3 -53 9 -69 15 -16 5 -39 9 -50 9 -14 0 -61 39 -131 108 -97 95 -106 107 -84 110 37 5 121 33 146 50 27 17 47 82 38 123 -10 45 -90 144 -158 196 -34 26 -65 53 -70 59 -10 17 -66 44 -91 44 -12 0 -32 9 -46 20 -14 11 -32 20 -42 20 -9 0 -18 5 -20 10 -2 6 -14 11 -28 12 -14 1 -30 6 -37 11 -7 5 -21 6 -33 2 -12 -4 -20 -2 -20 5 0 6 -5 8 -11 4 -6 -3 -14 -3 -18 2 -3 5 -18 15 -33 21 -21 9 -26 9 -22 0z m334 -690 c44 -24 77 -46 74 -50 -3 -3 10 -12 29 -21 47 -19 127 -93 127 -117 0 -54 -150 -29 -277 46 l-60 36 -6 57 c-3 31 -8 65 -12 75 -13 31 40 20 125 -26z"/>
 <path d="M2176 4378 c-25 -38 -43 -90 -57 -163 -7 -38 -16 -74 -20 -80 -20 -27 -20 -84 0 -131 11 -27 27 -82 35 -122 11 -51 28 -93 55 -137 22 -35 43 -75 47 -89 6 -27 47 -66 69 -66 7 0 36 19 65 42 l52 41 -4 51 c-3 30 -20 86 -42 134 -21 46 -36 85 -34 87 3 3 115 -16 234 -40 17 -4 25 -17 34 -54 6 -27 31 -80 56 -117 24 -37 44 -75 44 -85 0 -17 48 -59 68 -59 5 0 32 18 61 41 45 36 51 45 51 78 0 21 -7 58 -16 84 l-16 47 37 50 37 50 -26 35 c-15 19 -36 35 -47 35 -36 0 -67 29 -74 71 -11 62 -99 312 -112 316 -25 9 -79 -117 -90 -210 -7 -56 -19 -65 -62 -43 -38 20 -98 20 -144 1 -69 -29 -70 -28 -118 120 -24 75 -49 135 -56 135 -7 0 -19 -10 -27 -22z"/>
 <path d="M5728 3653 c-22 -25 -54 -92 -62 -130 -10 -44 3 -119 24 -146 15 -18 20 -19 33 -8 9 7 20 11 24 8 4 -3 33 -8 63 -11 30 -4 75 -10 100 -13 25 -3 57 -6 71 -7 16 0 25 -6 22 -13 -6 -15 28 -25 80 -23 105 4 202 -1 180 -10 -16 -7 -22 -16 -20 -32 3 -19 12 -24 48 -30 66 -10 532 -8 549 2 10 7 -4 10 -45 10 -33 0 -125 3 -205 7 -159 7 -170 11 -169 68 l0 30 16 -22 c15 -22 43 -32 43 -15 -1 17 -29 42 -48 42 -11 0 -22 5 -24 11 -4 13 -77 29 -83 18 -3 -4 -16 -5 -28 0 -26 9 -118 8 -134 -2 -5 -3 -13 -4 -17 0 -3 4 -41 8 -84 10 -42 2 -115 5 -162 7 -47 3 -93 5 -103 5 -16 1 -15 6 10 39 46 59 58 96 43 133 -12 27 -81 89 -100 89 -4 0 -14 -8 -22 -17z"/>
 <path d="M3955 3641 c15 -14 44 -22 115 -31 52 -6 100 -16 105 -22 7 -7 -1 -9 -26 -6 -36 4 -36 3 -22 -19 9 -13 18 -23 20 -23 3 0 49 -7 102 -15 127 -19 153 -23 169 -24 7 -1 11 -5 8 -10 -3 -5 16 -14 41 -21 26 -6 54 -16 61 -22 7 -6 61 -13 120 -15 136 -4 192 -11 192 -25 0 -7 -22 -8 -62 -4 -35 3 -106 8 -158 11 -91 6 -94 5 -67 -10 16 -9 26 -19 24 -22 -3 -3 -26 9 -51 26 -36 25 -55 31 -93 30 -26 0 -86 6 -133 15 -67 12 -87 13 -95 3 -7 -8 -34 -11 -82 -9 -79 3 -100 -12 -33 -23 80 -14 97 -15 215 -20 177 -7 227 -14 247 -32 20 -18 210 -44 281 -38 24 2 50 -1 58 -6 12 -7 12 -9 -1 -9 -11 -1 -8 -6 9 -20 22 -19 22 -20 3 -20 -10 0 -30 -8 -43 -19 -24 -19 -91 -21 -128 -5 -19 9 -30 12 -56 18 -11 2 -22 5 -25 7 -3 1 -9 3 -15 3 -5 1 -20 8 -33 14 -12 7 -27 10 -32 7 -6 -3 -10 -2 -10 3 0 5 -6 9 -12 10 -33 4 -55 10 -83 22 -33 13 -684 21 -761 8 -37 -5 -41 -4 -37 12 4 17 -9 18 -202 19 -119 0 -225 6 -249 12 -75 21 -72 19 -56 29 22 14 7 22 -88 47 -104 27 -108 27 -92 8 7 -9 15 -13 17 -11 3 2 17 0 33 -5 20 -8 27 -15 23 -29 -4 -15 2 -21 23 -25 16 -4 36 -9 44 -12 8 -3 21 -7 29 -9 68 -14 110 -27 106 -35 -3 -4 -25 -6 -48 -3 -23 3 -99 8 -169 12 -70 5 -130 11 -134 15 -4 4 2 7 14 7 32 0 34 14 4 28 -27 11 -165 43 -169 38 -2 -1 6 -12 17 -24 l21 -22 -28 -1 c-40 -2 -294 3 -318 6 -51 6 -103 18 -140 32 -41 16 -154 21 -192 9 -28 -9 -37 -34 -15 -40 9 -2 41 -8 70 -11 28 -4 50 -11 47 -16 -3 -5 -26 -6 -50 -2 -31 4 -45 2 -45 -6 0 -6 -10 -11 -22 -11 -33 0 -10 -18 43 -33 24 -8 43 -18 42 -24 -1 -5 48 -15 110 -22 139 -16 157 -20 157 -36 0 -19 -32 -27 -97 -23 -36 2 -58 -1 -60 -8 -3 -8 28 -12 101 -13 64 -1 129 -9 168 -19 42 -12 108 -19 198 -21 74 -1 153 -5 175 -8 22 -3 78 -8 125 -12 47 -4 77 -9 66 -9 -46 -4 -96 -26 -96 -42 0 -9 -8 -18 -17 -19 -35 -4 -249 0 -307 5 -51 5 -58 3 -53 -10 6 -14 -26 -16 -314 -16 -211 0 -318 -3 -314 -10 4 -6 -30 -10 -96 -10 -56 0 -100 -3 -96 -6 3 -3 73 -5 154 -3 210 3 222 3 484 -3 226 -5 266 -9 254 -28 -6 -10 22 -17 98 -26 l58 -7 -31 -30 c-16 -16 -30 -35 -30 -41 0 -6 -16 -29 -35 -51 -19 -22 -35 -46 -35 -52 0 -22 -3 -28 -19 -40 -9 -7 -12 -13 -8 -13 5 0 -1 -13 -12 -29 -12 -16 -22 -37 -24 -47 -2 -11 -7 -26 -10 -34 -61 -152 -88 -317 -92 -558 -1 -111 1 -205 6 -208 5 -3 7 -10 4 -15 -4 -5 -3 -14 1 -21 4 -6 7 -34 7 -62 0 -28 3 -55 7 -61 3 -5 7 -21 8 -35 2 -26 9 -63 12 -67 2 -2 4 -7 5 -13 1 -5 4 -13 5 -17 5 -16 7 -29 8 -51 1 -13 6 -21 11 -18 4 3 6 -5 4 -18 -3 -13 3 -36 12 -50 10 -14 15 -32 12 -41 -4 -8 -2 -17 4 -20 5 -4 7 -11 4 -16 -4 -5 3 -21 14 -35 12 -15 21 -33 21 -40 0 -7 4 -23 9 -36 5 -13 10 -27 11 -33 1 -5 9 -19 16 -30 8 -11 14 -25 14 -33 0 -7 9 -31 19 -53 11 -21 15 -36 9 -33 -6 4 -5 -3 2 -15 6 -12 15 -19 19 -16 5 2 12 -10 15 -28 3 -19 15 -43 26 -55 11 -12 20 -25 19 -29 -5 -30 4 -74 17 -88 27 -26 138 0 149 36 4 11 10 17 15 14 19 -11 17 93 -5 300 -11 106 -3 284 17 375 22 102 41 176 48 195 8 19 23 65 25 75 0 3 8 16 17 30 9 14 20 37 23 53 4 15 11 27 16 27 5 0 8 3 7 8 -3 14 14 62 23 62 5 0 9 5 9 11 0 6 9 24 21 40 11 16 18 29 16 29 -23 0 364 384 403 400 16 7 30 19 30 26 0 7 10 20 23 27 12 7 58 35 102 62 157 96 314 165 410 182 17 3 32 8 35 12 5 8 26 13 170 36 94 15 324 18 392 5 23 -5 60 -11 81 -15 56 -9 37 -21 -25 -16 -29 3 -140 4 -247 3 -177 -2 -204 -5 -315 -32 -137 -34 -262 -82 -258 -100 1 -6 -2 -9 -8 -5 -5 3 -10 1 -10 -6 0 -7 -3 -10 -6 -6 -9 8 -95 -38 -133 -72 -19 -17 -38 -31 -41 -31 -12 0 -50 -37 -50 -48 0 -6 -6 -12 -12 -15 -10 -3 -10 -9 1 -30 11 -21 17 -24 37 -17 13 5 24 6 24 2 0 -4 4 -2 8 4 21 30 185 102 250 109 20 3 55 9 77 14 22 6 83 12 135 16 52 3 107 7 122 9 24 4 220 -15 288 -28 14 -2 47 -5 73 -5 l49 -1 -19 -29 c-70 -109 -107 -154 -230 -278 -76 -77 -145 -148 -153 -159 -60 -76 -104 -123 -112 -118 -4 3 -8 2 -7 -3 3 -19 -2 -27 -10 -15 -5 9 -26 -7 -72 -59 -35 -39 -80 -88 -100 -108 -19 -20 -37 -40 -39 -46 -2 -5 -14 -18 -27 -28 -29 -23 -75 -70 -188 -193 -49 -53 -109 -118 -132 -143 -24 -25 -43 -49 -43 -52 0 -3 -32 -38 -72 -78 -47 -47 -75 -68 -81 -62 -7 7 -7 15 0 23 6 7 10 45 8 88 -1 41 1 81 6 90 22 43 30 142 16 220 -2 14 -5 31 -6 38 0 7 -5 11 -10 8 -5 -4 -8 2 -7 11 2 10 0 20 -4 23 -4 3 -11 27 -14 54 -4 27 -14 62 -22 78 -13 25 -13 31 1 50 18 27 19 55 3 148 -8 44 -17 70 -25 70 -15 0 -16 6 -17 72 -1 26 -5 46 -9 45 -5 -1 -14 9 -21 22 l-13 23 -20 -26 c-12 -14 -25 -26 -29 -26 -10 0 -54 -79 -54 -97 0 -6 -5 -24 -12 -40 -6 -15 -10 -36 -9 -45 1 -10 -3 -18 -9 -18 -6 0 -9 4 -5 9 3 5 -4 13 -16 16 -15 5 -27 0 -42 -16 -26 -27 -67 -107 -67 -131 0 -9 -4 -19 -10 -23 -5 -3 -25 -40 -45 -81 -25 -55 -32 -80 -26 -93 9 -16 6 -99 -3 -109 -3 -2 -1 -15 4 -28 10 -25 -1 -72 -16 -65 -10 4 -44 -57 -44 -81 0 -9 -4 -20 -10 -23 -12 -8 -13 -85 -1 -85 17 0 33 -60 29 -114 -2 -39 1 -56 9 -56 6 0 15 5 18 10 9 14 21 13 23 -2 1 -7 4 -27 8 -44 5 -25 2 -32 -20 -42 -19 -9 -26 -19 -26 -41 0 -17 6 -31 16 -35 8 -3 12 -2 9 3 -3 5 -1 12 5 16 5 3 10 -1 10 -10 0 -8 -6 -18 -14 -21 -16 -6 -15 -46 2 -67 10 -11 22 -11 69 -2 32 7 62 10 68 7 12 -8 -105 -33 -123 -27 -14 5 -42 -18 -61 -50 -11 -19 -11 -19 -9 2 3 24 -4 26 -39 12 -28 -10 -29 -21 -3 -44 25 -23 25 -32 1 -40 -10 -3 -22 -17 -25 -30 -4 -17 -13 -25 -29 -25 -20 0 -63 -20 -43 -20 5 0 2 -7 -5 -16 -12 -14 -7 -15 46 -10 l60 6 -60 -14 c-33 -8 -63 -12 -67 -9 -5 2 -8 1 -9 -4 0 -4 -2 -17 -4 -28 -2 -10 2 -26 8 -34 10 -12 9 -13 -3 -6 -12 6 -12 5 -3 -5 14 -15 95 1 155 31 21 11 45 19 54 19 15 0 15 2 0 25 -9 14 -14 30 -11 35 3 6 -2 10 -12 11 -11 0 -13 2 -5 6 7 3 18 16 23 30 6 18 13 22 22 16 13 -10 27 -10 157 2 84 7 366 -2 356 -12 -3 -3 -54 -7 -113 -9 -306 -11 -363 -19 -363 -57 0 -22 1 -22 198 -24 147 -1 210 -5 247 -17 28 -9 53 -16 57 -16 15 0 64 135 66 182 2 25 -1 26 -54 30 -43 2 -58 -1 -62 -12 -3 -8 -11 -19 -19 -23 -7 -4 -13 -15 -13 -23 0 -9 -6 -14 -12 -11 -7 2 -13 19 -13 38 l0 34 -60 3 c-33 2 -116 -1 -185 -6 -70 -5 -126 -5 -128 -1 -2 5 -13 10 -25 10 -71 5 159 17 261 14 120 -4 122 -4 146 22 13 14 29 22 35 18 6 -3 43 -7 82 -8 l69 -2 10 34 c7 26 5 38 -8 57 -9 13 -22 24 -28 24 -6 0 -17 11 -24 25 -10 19 -10 27 -1 39 8 10 9 16 1 21 -6 4 -20 -5 -31 -19 l-21 -26 -20 26 -21 26 22 21 c44 45 82 90 98 118 10 16 22 29 28 29 5 0 21 15 35 32 41 54 132 161 161 192 15 16 45 49 65 75 21 25 62 66 90 91 58 50 123 131 235 292 41 59 80 110 88 113 15 6 33 -14 25 -27 -11 -18 14 -7 35 15 13 15 19 30 15 41 -5 12 42 63 179 199 108 107 189 195 197 214 7 18 31 50 54 71 22 21 60 63 82 93 23 31 64 78 90 105 27 27 74 79 104 114 73 86 77 90 89 90 13 0 32 35 24 44 -3 3 -2 6 4 6 6 0 14 7 17 15 4 10 1 15 -8 13 -8 -2 -29 11 -47 27 -19 17 -38 32 -44 34 -49 14 -14 19 135 17 196 -3 317 10 344 37 10 9 25 17 34 17 31 1 127 12 131 16 2 2 -14 4 -37 4 -23 0 -42 5 -42 10 0 6 6 11 13 11 50 5 69 10 92 25 23 15 24 19 10 26 -10 6 -21 6 -29 -1 -12 -10 -386 -27 -386 -17 0 2 27 14 60 26 33 12 63 26 66 31 5 9 -53 42 -64 35 -4 -2 -38 2 -77 9 -38 7 -95 16 -125 20 -68 8 -77 15 -22 15 23 0 42 5 42 10 0 6 -50 10 -129 10 -72 0 -142 5 -158 11 -15 6 -48 17 -73 23 -25 7 -46 18 -46 24 -1 7 -2 16 -3 22 -2 13 -86 24 -281 35 -30 2 -84 6 -120 9 -36 3 -73 5 -83 6 -10 0 -16 4 -13 9 3 5 -13 12 -37 17 -42 8 -42 8 -9 12 53 6 33 32 -25 32 -14 0 -48 7 -76 14 -56 16 -72 19 -242 41 -60 8 -126 18 -145 21 -35 5 -35 5 -15 -15z m770 -251 c4 -6 -18 -10 -59 -10 -37 0 -66 4 -66 10 0 6 26 10 59 10 33 0 63 -4 66 -10z m-1768 -68 c-15 -3 -107 34 -107 43 0 2 28 -7 63 -18 34 -12 54 -23 44 -25z m2466 -13 c71 -3 79 -16 42 -65 l-27 -36 -148 4 c-82 2 -146 0 -144 -3 13 -22 -148 -17 -203 6 -19 8 -47 15 -61 15 -16 0 -22 4 -16 9 13 13 113 18 117 6 2 -6 85 -10 224 -9 183 0 223 3 242 16 13 9 18 19 12 22 -8 5 -132 17 -286 28 -38 2 108 13 155 12 19 -1 61 -3 93 -5z m-1533 -39 c10 -1 9 -4 -5 -10 -30 -12 -111 3 -101 19 3 5 24 5 48 0 24 -4 50 -9 58 -9z m-613 -10 c79 0 59 -11 -31 -17 -49 -4 -76 -2 -76 5 0 13 21 22 38 16 8 -2 39 -4 69 -4z m2311 -127 c-10 -2 -28 -2 -40 0 -13 2 -5 4 17 4 22 1 32 -1 23 -4z m-1904 -88 c-21 -15 -92 -30 -101 -21 -8 7 65 38 75 32 5 -3 14 -1 22 4 22 14 26 1 4 -15z m-876 -22 c14 -13 9 -14 -44 -8 -81 10 -103 31 -27 26 32 -2 63 -9 71 -18z m652 -33 c3 -1 -2 -5 -10 -8 -35 -16 -150 -95 -150 -102 0 -5 -6 -15 -12 -22 -93 -99 -199 -231 -202 -253 -1 -7 -17 -37 -36 -67 -19 -29 -42 -70 -51 -90 -10 -20 -25 -52 -34 -71 -9 -20 -18 -42 -19 -50 -1 -8 -7 -21 -14 -29 -6 -8 -9 -18 -6 -21 4 -4 -3 -29 -15 -58 -12 -28 -20 -57 -17 -64 2 -7 0 -17 -5 -22 -5 -5 -10 -21 -11 -36 -1 -15 -6 -27 -11 -27 -5 0 -7 -7 -3 -15 3 -8 1 -26 -4 -40 -7 -20 -15 -125 -19 -259 -1 -11 -4 -16 -8 -13 -15 15 -13 312 2 411 21 129 53 266 67 283 6 7 8 16 5 19 -3 4 2 14 11 23 12 10 13 13 2 7 -8 -5 -3 3 13 18 28 28 37 52 15 41 -7 -4 -6 -1 3 7 9 7 30 40 47 74 18 33 48 77 67 98 19 21 35 43 35 48 0 5 7 11 15 14 8 4 15 12 15 20 0 8 3 13 8 12 4 -2 19 7 32 20 26 25 136 99 193 131 27 15 37 17 47 8 6 -7 11 -7 10 -2 -5 22 4 26 40 15z m1586 -201 c3 -6 1 -16 -5 -22 -8 -8 -11 -8 -11 1 0 7 -8 12 -17 12 -15 0 -16 2 -3 10 20 13 27 12 36 -1z m-231 -419 c-16 -16 -31 -28 -33 -25 -6 5 45 55 55 55 4 0 -6 -13 -22 -30z m-1421 -414 c-3 -9 -10 -16 -15 -16 -6 0 -5 9 1 21 13 24 24 20 14 -5z m136 -37 c0 -31 -6 -35 -29 -20 -12 8 -13 14 -3 36 15 32 32 24 32 -16z m802 -16 c-16 -21 -40 -47 -53 -58 -13 -11 -4 2 19 29 23 27 42 53 42 57 0 5 5 9 11 9 6 0 -3 -17 -19 -37z m-82 -96 c0 -2 -17 -19 -37 -38 l-38 -34 34 38 c33 34 41 42 41 34z m-830 -83 c0 -16 -5 -24 -12 -21 -20 6 -18 47 3 47 5 0 9 -12 9 -26z m720 -27 c0 -1 -24 -25 -52 -52 -29 -28 -41 -37 -28 -21 35 41 80 82 80 73z m-822 -227 c-1 -16 -6 -30 -10 -30 -9 0 -10 7 -2 38 9 31 15 27 12 -8z m84 -60 c2 -23 -1 -41 -8 -44 -7 -3 -11 12 -12 40 -3 55 15 58 20 4z m280 -220 c-15 -26 -42 -42 -42 -25 0 6 50 55 56 55 2 0 -5 -13 -14 -30z m-76 -88 l-28 -27 7 25 c11 37 26 53 39 40 7 -7 2 -18 -18 -38z m-82 -22 c23 -9 26 -13 16 -25 -7 -8 -22 -14 -34 -14 -17 1 -17 2 -3 6 9 2 17 9 17 15 0 8 -44 9 -146 4 -115 -5 -145 -3 -142 6 3 7 22 16 44 20 52 9 214 1 248 -12z m51 -64 c19 -8 35 -16 35 -18 0 -2 -46 -4 -102 -5 -56 -1 -106 -7 -112 -13 -5 -5 -54 -10 -110 -10 -118 1 -113 18 6 25 40 2 98 10 128 18 73 19 113 20 155 3z m26 -49 c-6 -8 -8 -17 -4 -20 3 -4 1 -7 -5 -7 -13 0 -16 22 -5 33 12 13 25 7 14 -6z m-6 -67 c10 -16 -43 -23 -133 -17 -48 4 -98 7 -112 8 -20 1 -18 3 10 9 53 11 228 11 235 0z m152 -4 c16 -16 -11 -17 -54 -2 l-48 16 48 -4 c26 -2 51 -6 54 -10z"/>
 <path d="M1936 3562 c-15 -14 -4 -32 20 -32 14 0 59 -11 100 -26 54 -18 83 -23 110 -18 l37 7 -27 14 c-15 8 -59 20 -99 28 -40 8 -86 19 -104 24 -17 5 -34 7 -37 3z"/>
 <path d="M2704 3468 c-4 -5 -3 -12 0 -15 7 -8 36 4 36 15 0 11 -29 11 -36 0z"/>
 <path d="M2436 3104 c9 -13 23 -24 30 -24 23 0 16 14 -16 32 l-30 17 16 -25z"/>
 <path d="M5382 2957 c-12 -13 -22 -27 -22 -31 0 -4 -12 -21 -27 -36 -45 -45 -83 -97 -83 -110 0 -15 -95 -111 -113 -114 -22 -4 -57 -31 -57 -43 0 -7 -5 -13 -10 -13 -6 0 -9 -15 -8 -32 3 -35 23 -51 77 -63 17 -4 31 -10 31 -14 0 -4 15 -12 34 -19 46 -17 173 -142 159 -156 -4 -3 -2 -6 3 -6 10 0 40 -69 36 -82 -1 -5 1 -8 6 -8 4 0 8 -12 9 -27 0 -16 6 -54 11 -85 6 -31 12 -94 13 -140 1 -46 6 -96 10 -113 4 -16 9 -43 11 -60 2 -16 10 -41 17 -55 18 -34 101 -110 119 -110 9 0 23 -6 31 -14 19 -17 81 -10 81 10 0 7 -4 16 -10 19 -22 14 -32 88 -20 148 11 55 10 61 -9 81 -12 12 -21 30 -21 39 0 23 -40 44 -50 26 -5 -8 -12 1 -19 27 -21 73 -23 147 -6 239 10 57 17 161 19 284 3 204 -5 261 -46 324 -10 14 -18 29 -18 32 0 5 -119 125 -124 125 -1 0 -12 -10 -24 -23z m-51 -327 c10 -6 25 -23 33 -38 8 -15 28 -43 45 -62 34 -37 65 -125 63 -178 -3 -67 -32 -67 -32 0 0 61 -35 124 -115 205 -68 71 -71 78 -27 82 7 0 22 -4 33 -9z m224 -850 c13 -15 15 -24 8 -31 -8 -8 -16 -3 -27 20 -19 35 -8 41 19 11z"/>
 <path d="M3640 833 c0 -7 6 -14 13 -14 6 -1 24 -3 39 -4 15 -2 29 2 32 10 3 9 -8 14 -40 17 -30 2 -44 -1 -44 -9z"/>
 <path d="M3165 580 c-94 -20 -113 -28 -139 -52 -11 -10 -28 -18 -38 -18 -25 0 -22 -12 7 -33 23 -16 29 -17 67 -4 24 8 63 18 88 22 25 4 54 10 65 13 30 8 343 10 379 3 17 -4 39 -5 48 -3 21 4 43 61 25 66 -111 32 -373 35 -502 6z"/>
 <path d="M3361 488 c-46 -4 -97 -12 -114 -17 -16 -6 -48 -11 -71 -11 -46 0 -116 -17 -116 -28 0 -10 91 -57 115 -59 11 -1 44 6 73 15 49 15 54 15 69 -1 11 -11 13 -17 5 -17 -6 0 -18 -15 -25 -32 -12 -29 -12 -35 2 -46 14 -10 12 -11 -11 -6 -16 3 -29 1 -35 -8 -4 -7 -20 -13 -35 -14 -75 -3 -79 -4 -76 -21 2 -12 16 -17 53 -21 28 -2 52 -5 54 -8 2 -2 6 -26 9 -53 l4 -49 47 -8 c44 -8 151 -8 158 0 3 2 12 26 22 52 l17 49 54 5 c50 5 53 6 33 18 -20 11 -77 21 -145 26 -15 1 -33 8 -40 15 -11 11 -4 12 40 6 48 -6 52 -5 46 12 -4 10 -14 26 -22 36 -8 9 -12 20 -9 24 4 3 2 13 -5 20 -17 21 7 33 62 31 50 -2 90 8 90 23 0 6 7 17 15 26 9 8 14 17 11 20 -12 13 -200 27 -275 21z"/>
 </g>

</svg>