<!DOCTYPE svg PUBLIC "-//W3C//DTD SVG 20010904//EN" "http://www.w3.org/TR/2001/REC-SVG-20010904/DTD/svg10.dtd">
<svg version="1.0" xmlns="http://www.w3.org/2000/svg" width="257px" height="257px" viewBox="0 0 2570 2570" preserveAspectRatio="xMidYMid meet">
<g id="layer101" fill="#15a5a3" stroke="none">
 <path d="M1100 2545 c-415 -61 -767 -319 -958 -700 -88 -177 -126 -344 -125 -560 0 -226 38 -388 136 -579 179 -351 494 -587 898 -673 100 -21 349 -24 449 -4 599 114 1023 594 1057 1197 14 249 -59 529 -193 737 -278 431 -767 656 -1264 582z m-149 -216 c27 -14 41 -53 29 -83 -6 -17 -22 -29 -50 -37 -41 -13 -55 -39 -20 -39 11 0 30 -10 41 -21 17 -17 20 -30 16 -65 -3 -33 -1 -44 9 -44 8 0 14 -7 14 -15 0 -11 -12 -15 -47 -15 -67 0 -89 8 -102 36 -16 35 -14 66 6 94 12 17 13 25 5 28 -14 4 -16 52 -2 52 6 0 1 9 -10 20 -26 26 -25 48 2 77 23 25 75 31 109 12z m791 -159 l45 -160 -29 0 c-24 0 -29 5 -35 30 -8 43 -21 46 -28 6 -6 -30 -11 -34 -45 -39 -21 -3 -59 -2 -84 0 l-46 6 0 103 0 104 25 0 c24 0 25 -3 25 -57 1 -71 18 -116 47 -118 17 -1 24 10 43 69 22 70 22 72 5 131 -10 33 -20 66 -22 73 -4 8 5 12 24 12 29 0 29 0 75 -160z m-592 50 c10 -6 11 -12 3 -22 -6 -7 -13 -48 -15 -91 -3 -63 -7 -82 -23 -93 -39 -29 -115 -5 -115 37 0 23 13 24 44 4 21 -14 25 -14 37 1 12 14 10 19 -11 36 -75 59 -83 75 -60 118 8 15 21 19 68 19 32 0 65 -4 72 -9z m318 -2 c18 -18 15 -52 -3 -44 -8 3 -22 9 -29 12 -11 4 -18 -4 -24 -28 -8 -33 -8 -33 30 -36 37 -3 38 -4 38 -40 0 -49 -24 -82 -58 -82 -35 0 -49 10 -61 41 -15 42 -7 146 14 169 20 22 74 27 93 8z m-238 -158 l0 -160 -30 0 -30 0 0 160 0 160 30 0 30 0 0 -160z m90 0 l0 -160 -30 0 -30 0 0 160 0 160 30 0 30 0 0 -160z m688 -224 c15 -8 38 -26 52 -41 l25 -27 3 -492 3 -492 -23 -35 c-49 -72 -13 -69 -788 -69 -676 0 -696 1 -728 20 -18 11 -41 34 -52 52 -20 32 -20 48 -18 524 3 476 4 493 23 514 11 13 34 31 50 41 28 18 66 19 728 19 580 0 703 -2 725 -14z"/>
 <path d="M881 2291 c-14 -24 8 -55 32 -45 21 8 22 50 1 58 -22 8 -22 8 -33 -13z"/>
 <path d="M892 2119 c-11 -28 -6 -69 9 -69 14 0 22 50 11 73 -10 22 -10 22 -20 -4z"/>
 <path d="M1055 2181 c-7 -13 12 -51 25 -51 6 0 10 8 10 19 0 23 -25 46 -35 32z"/>
 <path d="M1404 2074 c3 -9 6 -21 6 -27 0 -16 20 14 20 31 0 6 -7 12 -16 12 -11 0 -14 -5 -10 -16z"/>
 <path d="M630 1120 l0 -340 655 0 655 0 0 340 0 340 -214 0 -214 0 -100 -162 c-55 -90 -107 -164 -115 -166 -9 -2 -33 27 -63 75 -26 43 -58 95 -72 116 l-23 39 -84 -144 c-56 -97 -88 -143 -100 -143 -12 0 -51 59 -128 193 l-112 192 -42 0 -43 0 0 -340z m1134 -55 c87 -41 85 -159 -2 -201 -99 -47 -207 59 -157 152 31 57 98 78 159 49z"/>
 </g>

</svg>