<!DOCTYPE svg PUBLIC "-//W3C//DTD SVG 20010904//EN" "http://www.w3.org/TR/2001/REC-SVG-20010904/DTD/svg10.dtd">
<svg version="1.0" xmlns="http://www.w3.org/2000/svg" width="640px" height="640px" viewBox="0 0 6400 6400" preserveAspectRatio="xMidYMid meet">
<g id="layer101" fill="#15a5a3" stroke="none">
 <path d="M2835 6380 c-633 -83 -1169 -308 -1647 -693 -49 -39 -88 -74 -88 -79 0 -4 948 -8 2108 -8 l2107 1 -40 35 c-84 74 -291 224 -405 293 -517 314 -1089 473 -1685 470 -139 -1 -257 -7 -350 -19z"/>
 <path d="M615 5085 c-757 -1038 -819 -2433 -158 -3530 913 -1518 2874 -2007 4391 -1097 1275 766 1855 2313 1395 3727 -105 326 -259 627 -458 900 l-80 110 -5 -1010 c-4 -778 -8 -1016 -18 -1038 -22 -50 -64 -97 -111 -125 l-46 -27 -2325 0 -2325 0 -46 27 c-47 28 -89 75 -111 125 -10 22 -14 260 -18 1038 l-5 1010 -80 -110z m2059 -2820 c330 -419 514 -645 526 -645 16 0 186 211 864 1072 l171 217 223 1 c214 0 223 -1 210 -18 -7 -10 -266 -339 -576 -730 l-563 -712 26 -44 c60 -103 65 -254 12 -369 -73 -159 -262 -260 -430 -229 -233 43 -380 256 -333 481 9 40 27 93 41 117 l26 44 -563 712 c-310 392 -569 720 -576 730 -13 17 -3 18 210 18 l223 -1 509 -644z"/>
 <path d="M4162 5014 l-22 -15 0 -528 c0 -601 -7 -555 89 -556 83 0 91 5 91 65 l0 50 52 -40 c92 -74 122 -85 223 -85 74 0 98 4 131 22 126 67 194 261 166 472 -17 126 -46 195 -107 257 -65 66 -127 88 -230 82 -67 -3 -79 -7 -134 -45 -47 -32 -61 -38 -65 -26 -3 8 -6 89 -6 179 l0 164 -26 10 c-40 16 -136 12 -162 -6z m442 -479 c51 -47 71 -109 70 -220 0 -80 -4 -109 -21 -147 -25 -55 -71 -88 -124 -88 -45 0 -123 50 -157 100 -22 33 -23 43 -20 152 l3 117 35 37 c52 55 89 74 141 74 35 0 52 -6 73 -25z"/>
 <path d="M1695 4733 c-11 -3 -41 -14 -67 -25 -38 -16 -49 -27 -59 -55 -12 -37 -7 -109 8 -124 6 -6 37 3 77 22 127 59 254 46 272 -27 11 -42 -14 -76 -74 -104 -185 -87 -217 -105 -246 -148 -24 -34 -31 -56 -34 -106 -2 -36 1 -81 8 -101 18 -54 72 -109 131 -135 98 -42 270 -36 348 11 30 18 31 22 31 84 0 80 -10 87 -78 54 -36 -18 -65 -23 -123 -24 -90 0 -119 17 -119 71 0 43 37 74 132 109 174 66 229 126 229 252 0 117 -66 203 -183 238 -49 14 -206 19 -253 8z"/>
 <path d="M3404 4720 c-126 -41 -203 -147 -225 -310 -22 -161 19 -309 110 -401 83 -82 142 -103 296 -103 148 0 213 21 285 94 107 106 137 333 70 514 -30 78 -103 155 -182 192 -56 25 -76 29 -178 31 -93 2 -127 -1 -176 -17z m261 -169 c67 -39 102 -140 92 -269 -11 -143 -70 -212 -182 -212 -79 0 -120 25 -155 95 -22 44 -25 62 -25 160 0 94 4 117 24 157 24 49 56 77 106 89 41 11 103 2 140 -20z"/>
 <path d="M2319 4724 c-10 -3 -20 -15 -23 -27 -3 -12 -6 -266 -6 -564 0 -479 2 -543 16 -557 11 -12 36 -16 94 -16 114 0 110 -10 110 237 l0 205 31 -27 c78 -65 179 -89 277 -65 67 16 132 72 163 142 23 51 24 62 27 355 l4 303 -27 10 c-33 13 -126 13 -159 0 l-25 -9 -3 -268 c-3 -249 -4 -271 -23 -303 -46 -77 -134 -75 -219 3 l-46 43 0 255 c0 141 -4 261 -10 269 -7 11 -31 15 -87 17 -43 1 -85 -1 -94 -3z"/>
 </g>
<g id="layer102" fill="#15a5a3" stroke="none">
 <path d="M3025 6391 c56 -6 53 -7 -55 -14 -63 -4 -142 -12 -175 -17 -207 -31 -210 -32 -370 -71 -140 -33 -211 -56 -382 -121 -147 -55 -398 -179 -482 -237 -14 -10 -33 -20 -41 -23 -27 -11 -196 -131 -300 -213 l-101 -80 1040 -3 c573 -1 1509 -1 2082 0 l1040 3 -101 80 c-261 206 -540 366 -825 474 -33 13 -69 27 -80 31 -11 5 -38 14 -60 21 -22 6 -49 15 -60 20 -11 4 -31 10 -45 14 -14 3 -65 16 -115 29 -202 51 -378 80 -565 93 -108 7 -111 8 -55 14 33 3 -46 6 -175 6 -129 0 -208 -3 -175 -6z"/>
 <path d="M639 5095 c-54 -71 -149 -211 -149 -221 0 -3 -8 -18 -19 -32 -59 -84 -182 -332 -240 -487 -13 -33 -31 -82 -42 -109 -10 -27 -19 -57 -19 -67 0 -10 -4 -20 -9 -23 -5 -3 -11 -18 -14 -33 -3 -16 -16 -71 -29 -123 -14 -52 -30 -122 -37 -155 -6 -33 -16 -79 -21 -103 -6 -23 -10 -55 -10 -71 0 -16 -4 -51 -10 -78 -5 -26 -13 -97 -17 -158 -7 -100 -8 -105 -14 -55 -3 30 -6 -51 -6 -180 0 -129 3 -210 6 -180 6 50 7 45 14 -55 4 -60 12 -132 17 -158 6 -27 10 -62 10 -78 0 -16 4 -48 10 -71 5 -24 15 -70 21 -103 7 -33 23 -103 37 -155 13 -52 26 -107 29 -123 3 -15 9 -30 14 -33 5 -3 9 -13 9 -23 0 -10 9 -40 19 -67 11 -27 29 -76 42 -109 58 -155 181 -403 240 -487 11 -14 19 -29 19 -32 0 -4 23 -42 52 -84 184 -274 413 -524 663 -725 106 -85 306 -227 320 -227 4 0 19 -9 35 -20 79 -56 333 -182 482 -238 172 -65 243 -88 383 -121 216 -53 358 -75 545 -88 108 -7 111 -8 55 -14 -33 -3 46 -6 175 -6 129 0 208 3 175 6 -56 6 -53 7 55 14 186 13 364 42 565 93 50 13 101 26 115 29 14 4 34 10 45 14 11 5 38 14 60 20 22 7 49 16 60 21 11 4 47 18 80 31 584 221 1122 650 1484 1184 60 90 80 121 143 230 50 86 148 295 187 400 13 33 27 69 31 80 5 11 13 36 19 55 6 19 18 58 27 85 19 61 56 208 73 290 6 33 16 79 21 103 6 23 10 56 10 73 0 16 4 49 10 72 5 23 13 96 17 162 7 110 8 115 14 60 3 -33 6 46 6 175 0 129 -3 208 -6 175 -6 -55 -7 -50 -14 60 -4 66 -12 139 -17 162 -6 23 -10 56 -10 72 0 17 -4 50 -10 73 -5 24 -15 70 -21 103 -17 82 -54 229 -73 290 -9 28 -21 66 -27 85 -6 19 -14 44 -19 55 -4 11 -18 47 -31 80 -39 105 -137 314 -187 400 -63 109 -83 140 -143 230 -37 55 -81 116 -98 135 l-30 35 -1 -987 c0 -748 -3 -994 -12 -1015 -23 -52 -68 -111 -100 -131 -89 -55 70 -52 -2398 -52 -2027 0 -2280 2 -2320 16 -82 28 -139 79 -176 159 -5 12 -11 434 -14 1015 l-5 995 -46 -60z m1526 -2173 c6 -4 87 -104 180 -222 94 -118 242 -305 330 -416 88 -112 230 -291 315 -400 85 -108 168 -211 183 -228 l28 -31 29 35 c17 19 96 119 177 222 303 382 466 589 623 788 89 113 172 217 185 233 l23 27 222 0 c145 0 219 -3 215 -10 -3 -5 -1 -10 4 -10 6 0 11 -3 11 -7 0 -5 -69 -94 -153 -200 -83 -105 -226 -285 -316 -400 -327 -414 -647 -818 -664 -840 -6 -9 1 -34 24 -80 31 -64 33 -75 33 -173 0 -97 -2 -110 -31 -170 -78 -161 -214 -250 -384 -250 -166 0 -305 90 -381 249 -30 61 -32 74 -32 171 0 98 2 109 33 173 l33 67 -33 43 c-19 24 -63 80 -99 126 -36 45 -137 174 -225 285 -88 111 -232 293 -320 405 -88 111 -229 289 -312 394 -84 106 -153 195 -153 200 0 4 5 7 11 7 5 0 7 5 4 10 -7 12 424 14 440 2z"/>
 <path d="M4165 4998 c-3 -7 -4 -249 -3 -538 l3 -525 70 0 70 0 3 45 c2 24 8 48 14 51 6 4 39 -15 73 -41 63 -47 144 -80 200 -80 49 0 136 31 170 62 65 56 95 126 114 264 16 113 -6 259 -52 344 -26 48 -76 99 -112 114 -74 32 -89 36 -139 36 -61 0 -103 -15 -162 -58 -31 -23 -45 -27 -53 -19 -8 8 -12 7 -13 -3 -1 -8 -5 68 -8 170 l-5 185 -83 3 c-60 2 -84 -1 -87 -10z m434 -439 c26 -17 64 -77 78 -123 20 -64 16 -192 -7 -256 -28 -78 -68 -110 -138 -110 -43 0 -62 6 -98 30 -24 17 -55 47 -69 68 -23 34 -25 45 -25 161 l0 125 59 57 c32 32 69 59 82 62 33 7 96 -1 118 -14z"/>
 <path d="M1710 4720 c-14 -4 -38 -11 -53 -15 -50 -11 -77 -47 -77 -104 0 -27 4 -52 9 -56 6 -3 32 5 58 18 81 38 156 52 205 38 52 -16 65 -25 84 -64 13 -23 13 -35 4 -57 -18 -43 -39 -58 -140 -99 -170 -71 -212 -118 -212 -236 0 -119 57 -186 186 -220 89 -23 174 -16 262 21 35 15 51 61 39 115 -7 30 -14 35 -30 20 -15 -14 -135 -51 -165 -51 -67 0 -130 50 -130 104 0 30 62 86 117 104 200 68 265 141 249 278 -12 108 -65 161 -197 203 -41 13 -172 13 -209 1z"/>
 <path d="M3410 4708 c-83 -28 -168 -108 -189 -178 -7 -25 -17 -55 -22 -68 -13 -33 -10 -219 4 -272 39 -144 128 -231 274 -265 73 -18 142 -18 213 -1 103 25 155 56 209 128 46 61 72 247 52 367 -25 151 -114 255 -251 294 -19 6 -78 11 -130 13 -76 2 -108 -1 -160 -18z m248 -137 c81 -41 112 -111 112 -249 0 -107 -13 -157 -54 -209 -74 -92 -230 -80 -296 23 -39 61 -55 166 -40 252 18 104 47 151 112 187 36 20 123 18 166 -4z"/>
 <path d="M2310 4146 c0 -505 2 -564 16 -570 20 -8 128 -8 148 0 14 5 16 34 16 216 0 124 4 207 9 204 5 -4 11 -1 13 4 2 6 22 -3 46 -21 51 -37 134 -69 182 -69 79 0 172 47 205 102 42 71 45 92 45 401 l0 298 -87 -3 -88 -3 -5 -270 c-5 -257 -6 -272 -27 -306 -56 -90 -166 -77 -260 29 l-32 37 -1 258 0 257 -90 0 -90 0 0 -564z"/>
 </g>
<g id="layer103" fill="#15a5a3" stroke="none">
 <path d="M3103 6393 c9 -2 23 -2 30 0 6 3 -1 5 -18 5 -16 0 -22 -2 -12 -5z"/>
 <path d="M3273 6393 c9 -2 23 -2 30 0 6 3 -1 5 -18 5 -16 0 -22 -2 -12 -5z"/>
 <path d="M4350 4650 c0 -5 5 -10 11 -10 5 0 7 5 4 10 -3 6 -8 10 -11 10 -2 0 -4 -4 -4 -10z"/>
 <path d="M4325 4030 c3 -5 8 -10 11 -10 3 0 2 5 -1 10 -3 6 -8 10 -11 10 -3 0 -2 -4 1 -10z"/>
 <path d="M2500 4000 c0 -7 3 -10 7 -7 3 4 3 10 0 14 -4 3 -7 0 -7 -7z"/>
 <path d="M2 3285 c0 -16 2 -22 5 -12 2 9 2 23 0 30 -3 6 -5 -1 -5 -18z"/>
 <path d="M6392 3285 c0 -16 2 -22 5 -12 2 9 2 23 0 30 -3 6 -5 -1 -5 -18z"/>
 <path d="M2 3115 c0 -16 2 -22 5 -12 2 9 2 23 0 30 -3 6 -5 -1 -5 -18z"/>
 <path d="M6392 3115 c0 -16 2 -22 5 -12 2 9 2 23 0 30 -3 6 -5 -1 -5 -18z"/>
 <path d="M1713 2913 c4 -3 10 -3 14 0 3 4 0 7 -7 7 -7 0 -10 -3 -7 -7z"/>
 <path d="M4673 2913 c4 -3 10 -3 14 0 3 4 0 7 -7 7 -7 0 -10 -3 -7 -7z"/>
 <path d="M3098 3 c6 -2 18 -2 25 0 6 3 1 5 -13 5 -14 0 -19 -2 -12 -5z"/>
 <path d="M3273 3 c9 -2 23 -2 30 0 6 3 -1 5 -18 5 -16 0 -22 -2 -12 -5z"/>
 </g>

</svg>